<?xml version="1.0" encoding="UTF-8"?>
<svg width="1200pt" height="1200pt" version="1.1" viewBox="0 0 1200 1200" xmlns="http://www.w3.org/2000/svg">
 <g fill="#007335">
  <path d="m884.6 1055.3c-21.816-0.73438-39.418-3.6836-57.066-5.9844-4.9336-0.64844-6.7852 0.41797-7.9648 4.8164-1.582 5.8164-4.0508 11.352-5.0508 17.398-1.9336 11.602-8.8828 19.867-19.035 25.367-8.1992 4.4492-16.266 5.1172-24-1.6172-2.9492-2.5664-6.918-6.8828-7.1328 2.4336-0.23437 10.352-16.316 21.266-27.5 19.352-5.8828-1.0156-11.699-2.0352-16.266-6.9648-3.7656-4.0664-6.918-4.5508-10.617 1.9844-10.383 18.301-35.332 24.633-51.352 12.699-10.785-8.0508-16.168-20.434-20.566-33.25-4.0156-11.734-4.1172-24.25-8.5664-35.852-1.668-4.332-3.0352-6.0508-7.9648-4.8672-5.832 1.3984-11.766 2.8828-17.918 2.4336-4.5352-0.33203-4.5 1.8516-2.9492 5.332 7.7344 17.383 5.6016 35.352 1.8008 53.035-1.582 7.3828-14.102 13.082-21.234 10.668-8.1172-2.7344-16.867-3.6172-24.25-8.4648-5.3008-3.4844-5.582 1.332-5.1992 4.0352 1.3008 9.25-5.1992 12.133-11.602 14.648-16.648 6.5508-22.984 4.5508-34.082-9.8672-4.832-6.2852-7.9336-6.1328-10.898 1.3984-1.668 4.25-4.4844 6.1016-8.1328 8.0156-14.602 7.6836-29.832 9.5-46.035 6.7148-10.715-1.832-16.301-8.6172-20.699-17.582-4.8828-9.9844-5.2852-21.184-8.9492-31.5-1.332-3.75-2.6992-4.5156-6.1172-3.0156-20.332 8.9648-42.168 10.602-63.816 13.449-8.6172 1.1328-17.199 2.1016-25.816 1.5-20.648-1.418-39.398-8.1172-54.316-22.852-8.3672-8.2656-15.949-17.418-23.117-26.766-14.617-19.066-11.984-48.035 5.3984-64.734 1.6328-1.5664 3.418-3.6172 5.4336-4.0664 9.8516-2.1836 14.516-8.4492 16.785-17.965 1.5352-6.4844 7.1484-11.035 10.551-16.699 1.2344-2.0508 3.8828-4.2148 1.5-6.8984-11.883-13.383-13.199-30.184-15.566-46.734-3.8984-27.465-1.668-54.148 10.918-79.148 18.75-37.215 53.234-41.25 85.801-20.734 2.4648 1.5508 5.0156 4.2148 7.668 2.8008 2.2852-1.2148 0.94922-4.7656 1.1484-7.2852 3.3164-41.184 13.648-80.465 31.066-117.96 3.8672-8.3008 6.3828-17.215 9.7148-25.785 1.3008-3.332 0.16797-5.4336-2.4336-7.3984-16.484-12.484-29.852-27.984-41.984-44.535-4.1992-5.7344-7.3984-4.5156-10.449 0.38281-2.8516 4.6016-5.4648 9.1484-3.7344 15.332 1.332 4.7344-0.5 9.5-6.1836 10.648-5.6328 1.1484-10.816 0.89844-13.551-5.832-4.2656-10.5-7.8516-21.117-7.4648-32.602 0.16797-5.1328-0.85156-8.3828-7-7.9336-5.2344 0.38281-9.0508-1.9336-9.918-7.5-0.80078-5.1836 0.050781-9.75 5.4492-12.383 2.3164-1.1172 4.3516-2.8164 6.6016-4.082 13.484-7.5508 15.883-17.102 12.984-31.566-5.9336-29.699-5.5664-59.082 1.8164-88.285 4.8008-19.035 11.582-37.484 22.352-54.082 3.5156-5.418 2.5-7.4492-3.1836-9.8516-10.898-4.582-21.082-10.398-29.516-19.102-10.766-11.117-24.102-19.316-33.832-31.883-22.168-28.582-36.168-59.883-32.816-96.516 3.3828-37.133 16.883-70.465 40.449-100.05 19.852-24.934 45.898-39.148 74.816-49.965 14.199-5.3164 28.801-7.082 43.684-9.0352 26.285-3.4492 45.633 10.215 55.949 33.852 6.6016 15.148 14.316 30.133 16.449 47.051 0.76562 6.1016 1.2148 12.051 0.43359 18.066-2.75 21.266-2.6836 42.484-0.16797 63.801 1.3828 11.684 7.5508 21.648 10.199 32.816 0.85156 3.5508 3.5508 3.168 6.2148 2.3672 18.398-5.5664 37.383-7 56.418-7.3672 20.535-0.39844 40.934 1.8008 60.699 7.4844 5.9844 1.7148 8.6836 0.51562 11.215-4.8984 8.668-18.465 18.234-36.516 24.734-55.918 1.418-4.2344 4.082-7.5508 6.6016-11.051 7.8984-10.949 15.984-21.766 23.535-32.949 5.7656-8.5352 15.102-13.449 21.117-21.465 12.133-16.168 28.367-26.566 46.449-34.449 16.383-7.1484 33.965-10.266 50.398-2.75 16.484 7.5352 27.648 21.016 30.465 40.168 3.2852 22.465 6.5156 44.984 10.984 67.234 3.332 16.617 8.4844 32.852 13.766 49.016 4.9336 15.102 13.332 29.535 10.516 46.602-2.582 15.648-7.918 29.883-18.102 42.199-2.5352 3.0664-4.3984 6.6992-6.6836 9.9844-13.566 19.398-34.918 28.684-54.051 40.602-7.082 4.418-11.168 6.7852-8.418 16.602 8.0352 28.633 6.5156 58.184 5.7344 87.551-0.36719 13.551 3.918 19.883 16.699 25.051 2.918 1.168 5.9648 2.3672 8.3984 4.2656 3.7344 2.918 4.7656 7.0664 3.332 11.684-1.3164 4.2852-4.6992 5.4336-8.6836 5.8672-13.465 1.4648-13.383 1.4844-10.566 14.383 1.2148 5.6172 1.8672 11.352 3.0156 16.984 0.58203 2.8008 1.332 5.832 4.0664 7.3828 6.25 3.5664 7.918 9.1172 4.1172 14.551-4.332 6.2148-11.316 5.0508-17.199 2.0664-8.4492-4.2656-14.699-11.801-23.5-15.918-5.5156-2.582-7.6836-1.6328-10.668 3.3008-8.6328 14.316-17.016 28.867-28.648 41.102-2.6328 2.7656-3.7344 5.4648-1.5156 9.2344 21.832 36.949 27.434 79.684 42.168 119.17 1.918 5.1172 3.4336 10.383 5 15.633 1.0156 3.3984 2.0156 3.3984 4.4648 0.85156 26.016-27.117 57.801-36.633 94.266-29.117 21.984 4.5352 39.801 16.648 52.117 35.582 4.6836 7.1992 6.3984 16.016 7.7656 24.551 4.7656 29.918 2.832 59.168-9.8008 87.102-1.4336 3.1484-0.75 4.6836 1.4492 6.5508 7.5664 6.418 10.566 14.832 10.852 24.5 0.21484 7.3984 2.6484 12.133 10.816 15.148 14.883 5.5156 21.168 18.801 23.566 33.602 2.7148 16.801-3.2656 31.148-14.301 43.648-5.918 6.6992-11.449 13.785-17.832 19.984-16.043 15.535-36.129 21.383-53.926 23.051zm-427.27-809.4c1.6172-28.434 4.1016-56.867 4.5508-85.332 0.33203-20.617 0.16797-41.934-15.035-58.832-5.8828-6.5352-9.5352-16.133-18.816-18.418-20.434-5.0352-40.75-2.8008-60.285 4.668-26.801 10.25-44.199 31.633-59.75 54.082-12.449 17.984-20.965 37.918-24.266 60.301-3.4648 23.582-4.7344 46.285 10.648 66.035 17.449 22.383 36.75 42.949 65.516 51.148 3.2852 0.93359 6.4648 2.5508 9.3516 4.3984 4.168 2.6484 8.582 3.6328 14.449 4.25-6.668-7.7656-12.898-13.883-21.715-16.965-6.7656-2.3672-13.316-5.3516-19.949-8.1172-5.2852-2.1992-8.1992-5.7852-8.0156-11.965 0.18359-5.8008 3.8008-8.1016 8.3672-9.6016 5.1992-1.6992 10.465-3.2656 15.801-4.4492 3.1484-0.69922 3.668-1.7148 2.25-4.6016-13.535-27.434-8.0352-55.016-0.5-82.602 1.168-4.2852 4.25-6.668 8.5156-7.7148 7.918-1.9492 13.266 1.0156 16.215 9.9648 4.168 12.617 9.668 24.352 20.602 36.133-1.0156-3.75-1.1836-5.168-1.7656-6.3672-2.4844-5.1836-4.5156-10.852 0.51562-15.102 5.1836-4.3672 11.75-3.5664 16.984 0.16797 14.699 10.453 30.75 19.836 36.332 38.918zm331.32-130.15c-0.63281 0.066406-2.1836-0.10156-3.4844 0.41797-17.867 7.1172-36.332 13.449-48.449 29.766-11.266 15.168-25.266 28.617-32.301 46.551-4.5352 11.535-8.2344 23.516-15.668 33.449-8.4648 11.301-13.066 24.285-18.301 37.016-1.2344 2.9844-4.5508 7.6992-2.0156 9.2344 2.9492 1.7852 6.6992-2.2852 9.1992-4.9336 9.8516-10.398 16.449-22.75 20.867-36.316 1.5508-4.7852 3.3008-9.2852 9.2344-10.148 7.9648-1.168 11.602 1.7656 13.367 11.918 0.63281 3.6484 1.2852 6.3984 4.582 2.2656 12.668-15.883 30.816-22.418 48.785-29.285 5.6484-2.168 11.801-2.9336 15.867 2.418 3.8672 5.1016 1.3516 9.9648-2.2344 14.867-10.352 14.133-19.75 28.934-25.984 45.434-1.418 3.7852-6.2852 9.5352-2.7656 11.383 4.5352 2.3984 9.0508-3.25 12.785-6.832 1.0352-1 2.25-1.9648 2.8984-3.1992 3.4648-6.6016 9.082-9.5508 15.766-6.7344 7.168 3.0156 5.25 10.215 4.4844 16.035-1.1836 9.1172-2.7656 18.215-4.7656 27.184-3.3672 15.184-9.7656 28.832-21.516 39.551-1.7656 1.6172-6.6484 1.8164-4.4844 5.4336 1.7344 2.8672 4.7656 5.832 9.418 4.3008 16.383-5.4336 33.316-10.484 47.066-20.816 12.066-9.0664 19.535-22.965 24.418-37.316 2.0156-5.918 3.832-12.566 2.1992-19.465-3.418-14.301-8.582-28.016-12.867-42.035-3.0156-9.8984-5.7344-19.984-7.5156-30.168-3.9844-22.648-7.0352-45.484-10.984-68.133-2.0508-11.625-15.484-22.023-27.602-21.84zm-396.41 742.83c-0.83203-7.5 0.28516-14.633 1.7656-21.684 1.668-7.8828 8.5156-13.785 15.648-13.648 8.7148 0.16797 11.766 6.1836 13.398 13.367 0.96484 4.1992 1.3164 8.5352 2.1016 12.766 0.51562 2.7656 0.76562 5.2656 5.0508 5.5156 21.984 1.1992 32.648 22.285 20.582 40.734-3.1328 4.7852-7.3672 8.9492-12.465 11.832-6.3828 3.6016-8.75 7.8984-6.0664 15.566 2.7852 7.9492 2.2148 16.465-0.63281 24.617-1.9492 5.5664-5.7344 8.0156-11.633 8.6016-9.6836 0.94922-14.918-4.6484-19.285-11.867-2.1328-3.5156-5.2656-4.418-8.8984-3.5508-4.918 1.168-1.6172 4.7148-1.5664 7.082 0.23438 11.852 5.6836 22.852 5.582 34.852-0.035156 4.9844 2.7656 4.5156 6.2148 1.7852 10.301-8.168 19.016-6.1484 23.285 6.168 2.1328 6.168 4.4492 6.0156 9.6016 4.2852 3.7852-1.2656 5.5664-3.3516 7.1836-6.582 3.2656-6.582 8.1328-11.934 14.582-15.484 12.449-6.832 21.832-1.2656 21.965 12.785 0.015624 2.3164 0.13281 4.6328-0.082032 6.9336-0.71484 7.4492 2.2148 9.6016 9.6016 8.0352 14.215-3.0156 27.535-10.684 42.852-8.1172 9.3672 1.5664 18.852 2.4336 28.184 4.168 5.0156 0.93359 6.6172-0.28516 5.1328-5.1484-3.2656-10.816-3.668-22.133-5.6016-33.184-2.7148-15.551-2.5508-15.582-18.602-16.117-15.918-0.53516-16.016-0.53516-16.418 15.852-0.14844 5.9492-1.4648 11.199-7.8164 12.934-6.082 1.668-12.016 1.3008-16.449-4.3516-3.0508-3.8828-5.3008-8.168-7.668-12.465-1.4844-2.6992-2.8672-4.832-6.918-1.1484-7.582 6.9336-16.301 3.25-18.316-6.8672-0.39844-1.9844-1.0352-3.9336-1.2344-5.918-1.1328-11.602-3.1172-24.918 7.1836-32.199 10.148-7.1836 7.668-14.449 3.3164-20.984-6.2148-9.3516-5.3008-16.949-0.33203-26.199 3.7852-7.0664 9.6328-10.332 15.285-6.8984 11.918 7.2656 26.699 12.016 31.383 27.668 1.75 5.8516 5.8516 7.4492 11.352 6.75 2.8516-0.36719 5.6484-1.168 8.5156-1.4492 9.6172-0.94922 10.332-2.2852 7.6016-11.516-1.582-5.332-5.6016-4.0664-9.1016-4.1836-7.1328-0.25-15.168 1.5352-19.918-5.4336-4.1836-6.1172-8.9844-12.199-10.383-19.766-1.332-7.2344-6.8828-11.867-10.266-17.801-1.1172-1.9492-2.8516-2.832-5.6016-0.60156-10.75 8.6992-22.535 7.9844-32.035-2.1016-7.5-7.9336-14.867-16.066-17.133-27.484-0.78516-3.918-1.9492-7.332-7.9648-3.4336-9.8672 6.3984-25.215 1-30.016-10.066-2.7852-6.3984-6.7344-12.066-9.75-18.266-1.1016-2.2852-2-5.9844-4.6484-5.5352-2.668 0.44922-2.1992 4.2344-2.5156 6.7344-4.668 37.516-5.3672 75.215-5.1328 112.95 0.015625 2.4492-1.7852 6.7148 2.4844 6.9844 4.4844 0.26562 6.3164-3.082 6.1328-7.582-0.25391-7.2656-2.8516-14.266-1.5352-21.332zm186.93-479.08c0 3.1836-0.10156 6.3516 0.035156 9.5352 0.10156 2.2344-0.26562 5.5156 0.98438 6.4336 1.8828 1.3828 4.1484-1.1016 5.8828-2.3828 7.8008-5.8516 15.234-12.215 23.215-17.816 23.316-16.418 48.965-24.418 77.234-17.285 22.234 5.6172 37.5 20.484 46.668 41.398 13.684 31.234 21.383 63.684 21.184 98.035-0.11719 18.801-1 37.367-4.918 55.785-1.0352 4.8828-0.91797 8.6016 6.418 6.7656 4.4844-1.1328 9.5352-2.3984 14.367 0.10156 4.8164 2.4844 5.5 0.082032 4.168-4-0.71484-2.1836-1.5664-4.332-2.5-6.4336-3.2656-7.3828-3.9336-14.484 2.6484-20.465 2.8008-2.5352 2.5664-4.168-0.035157-6.8516-5.8672-6.082-8.1484-13.184-7.0508-22.035 2.5156-20.25 4.4492-40.434 2.3164-61.117-3.668-35.516-18.301-66.066-40.035-93.168-33.082-41.266-78.215-62.398-129.12-72.602-11.852-2.3828-12.551-1.5352-12.852 10.867-0.41797 17.535-0.66797 35.133-3.6484 52.449-2.4336 14.203-4.918 28.336-4.9648 42.785zm-194.79 206.87c0.44922-0.14844 0.89844-0.31641 1.3516-0.46484-0.81641-3.0156-1.6328-6.0156-2.4336-9.0508-5.1328-19.5-11.352-38.801-15.133-58.566-4.75-24.852-7.2656-49.918-4.2148-75.551 2.1836-18.316 4.8984-36.035 15.566-51.332 6.5-9.332 12.449-20.418 24.266-23.684 27.234-7.5352 53.766-7.2656 78.934 8.6016 9.3164 5.8672 17.066 13.582 26.301 19.383 1.582 1 2.6172 3.832 4.8984 2.6016 2-1.082 1.1328-3.668 1.1328-5.582-0.035156-22.766 1.2656-45.633-1.918-68.25-1.9648-13.965-0.63281-28.234-4.6172-42-1.0508-3.6328-1.3984-5.9336-5.9648-4-11.918 5.0664-24.332 9.0664-35.832 14.898-25.465 12.918-46.184 31.898-65.516 52.699-23.449 25.234-39.617 54.648-49.301 87.301-6.1328 20.699-8.4336 42.184-5.0664 64.148 3 19.648 8.6992 39.699-2.1836 59.199-1.418 2.5508-0.18359 7.8828 1.7148 10.582 1.4492 2.0664 4.9844-1.3828 7.6836-2.0508 10.316-2.5352 15.965-0.44922 21.75 8.3828 2.8164 4.3008 5.7148 8.5 8.582 12.734zm288.25 264.35c-0.39844 6.0664 0.69922 14.949-1.332 23.867-3.1016 13.551-7.1484 16.734-20.898 15.801-4.918-0.33203-10.184-6.3008-14.332-1.3516-3.5 4.168-1.1992 10.602-1.3672 16.016-0.066406 2.3828-1.3828 5.8516 1.3164 6.9648 2.1484 0.88281 3.668-2.2656 5.1484-3.8672 6.4492-6.9336 15.168-8.0664 22.215-4.1172 9.7852 5.4844 8.6172 1 9.9844-6.3516 2.1992-11.832 10.965-22.75 22.883-18.801 9.1992 3.0508 16.168 8.6328 18.066 18.949 1.8672 10.168 3.8516 20.316 5.9492 30.449 3.6836 17.852-4.7148 27.535-22.551 23.883-8.5508-1.75-10.668 1.75-12.602 8.1328-3.9492 13.035-12.5 15.352-22.984 6.1016-2.4648-2.168-3.9648-3.1992-7.2344-0.93359-3.7148 2.5664-8.1836 4.1836-12.5 5.7148-2.8516 1.0156-4.8516 2.4336-4.0664 5.4844 2.0156 7.9648 1.3164 16.051 1.6016 24.102 0.082031 2.4648 0.48437 5.2148 3.918 3.2148 5.1836-3.0352 10.648-5.8984 15.102-9.8516 8.4648-7.5156 18.184-11.5 29.082-14.066 9.8164-2.3164 19.551-4.6016 28.148-11.352 9.4492-7.4336 20.715-11.949 32.316-2.6992 1.1484 0.91797 2.3164 1.4336 3.918 0.61719 14.215-7.25 26.984-3.1836 39.117 5.25 2 1.3984 2.4648 0.28516 2.5-1.3672 0.035156-2.0156 0.035156-4.0664-0.31641-6.0352-5.5664-31.766-11.266-63.5-16.766-95.285-0.98438-5.6992-1.75-10.801-9.3828-10.715-2.668 0.035156-4.3828-2.4492-5.6172-4.8828-2.3516-4.6172-4.2344-3.9844-5.7148 0.60156-0.61719 1.918-1.3008 3.832-2.1484 5.6484-5.1836 11.133-11.684 12.715-21.684 5.2852-4.8984-3.6328-9.2148-4.0508-13.215 1.4844-3.7852 5.2344-9.2656 5.6484-14.801 3.7148-5.3828-1.8828-5.2656-6.9336-5.582-11.602-0.5-7.2852-0.066407-14.684 2.4336-21.367 3.582-9.5664 7.1328-20.082 19.102-22.535 4.9648-1.0156 6.9336-3.6328 8.8516-8 5.168-11.766 9.5-24.516 24.184-28.383 1.8984-0.5 3.4336-1.9648 2.6016-4.6328-1.8984-6.0352-3.6172-12.133-5.4336-18.184-0.56641-1.8984-1.832-3.6328-3.332-1.1172-4.6836 7.8516-12.199 8.1484-19.766 7.418-6.668-0.63281-8.5508 3.0508-9.418 8.3516-1.3008 7.9492-2.1836 16-3.9492 23.852-3.6484 16.25-9.8164 25.465-27.816 20.285-0.81641-0.23438-1.7148-0.23438-2.5664-0.31641-5.3164-0.56641-8.3164 0.83203-9.4648 7.0352-1.6797 8.957-1.2461 17.84-1.5977 29.59zm-202.46 230.25c19.516 1.1172 42.266-0.80078 64.715-4.0352 13.301-1.918 26.734-3.6016 39.965-6.2852 3.8828-0.78516 6.6992-2.1836 5.418-6.832-2.8984-10.5-4.1836-21.551-9.0156-31.352-2.5664-5.1992-3.582-13.102-9.3984-14.699-14.352-3.9648-29.082-7.9648-44.215-5.5508-6.1484 0.98437-11.816 4.6992-17.965 5.9648-16.199 3.332-31.602 8.7148-45.898 16.898-14.332 8.1992-23.852 19.285-22.117 37.465 0.58203 6.1328 1.7656 8.8672 8.3828 8.5352 8.9102-0.45703 17.879-0.10938 30.129-0.10938zm328.88-55.781c-0.86719-3.4492 0.44922-7.5156-3.2344-10.266-16.199-12.082-33.984-20.566-54.285-22.102-31.582-2.3672-60.082 7.7852-86.617 23.75-4.9844 3-9.2852 8.7656-8.0664 16.133 1.4336 8.7852 2.582 17.617 4.1836 26.367 0.60156 3.3516 1.5 6.7148 6.5664 6.0508 19.668-2.582 39.535-4.0352 59.016-7.5508 26.684-4.8164 52-14.602 77.316-24.148 4.4219-1.668 6.0352-3.8008 5.1211-8.2344zm-10.117-228.6c1.2344-1.1328 2.3984-2.3672 3.7148-3.3828 11.102-8.6172 17.316-8.6016 28.332 0.63281 3.0664 2.5664 3.9844-0.25 5.5508-1.418 5.5156-4.1484 11.066-8.332 17.75-10.316 10.898-3.2344 19.016 4.5156 16.852 15.648-2.5352 13.016-9.2656 24.066-16.082 35.082-1.8164 2.9336-5.6172 5.5352-5.7148 8.418-0.18359 4.582 5.6016 3.0508 8.3984 5.0664 7.082 5.082 15.184 9.5352 13.648 20-1.4492 9.8164-10.148 10.984-17.648 12.383-16.75 3.1328-31.516-4.2852-46.734-8.9648 1.2344 8.0664 2.6328 16.832 3.918 25.602 0.93359 6.3672 2.7344 9.6836 8.1484 2.7852 4.0508-5.1484 10.133-8.1172 15.934-7.3164 15.5 2.1016 28.566-2.7344 42.383-9.0508 8.7148-3.9844 7.9648-5.75 3.5156-12.035-4.75-6.7148-2.7656-15.367 4.1016-20.168 2.918-2.0352 2.5508-3.5 1.4648-6.2656-4.1016-10.449-2.582-14.551 7.582-19.117 9.1992-4.1172 18.016-8.8828 26.5-14.285 2.1328-1.3516 4.3164-2.6172 3.75-6.0664-0.96484-5.75-2.8516-11.168-5.332-16.332-0.89844-1.8828-3.2148-4.1172-5.0508-4.2656-2.5352-0.21484-2.9336 3.0664-3.8008 5.1016-2.1328 5.0352-4 10.184-6.25 15.168-2.418 5.3828-6.7656 7.8164-12.633 6.8008-6.1836-1.0664-7.2344-5.8984-7.3672-11.082-0.13281-4.8984-0.14844-9.8164-0.082031-14.715 0.066406-4.6328-1.9492-7.3516-6.7148-6.7148-9.75 1.2656-14.648-4.418-16.965-12.449-2-6.9336-6.1016-7.5156-11.766-5.9648-11.316 3.1172-21.898 6.9844-31.566 14.617-7.9531 6.2227-14.438 12.773-17.836 22.605zm-415.07-578.27c-3.8008 25.5-1.4336 37.398 8.8672 52.117 3.4336 4.8984 9.0664 7.0508 12.715 11.566 5.4492 6.7148 4.1016 14.465-3 16.965-2.25 0.80078-6.1172-1.0508-6.5508 2.0508-0.35156 2.6016 3.7852 2.9844 5.5156 4.8516 1.5664 1.6836 3.0664 3.3984 4.6172 5.1016 3.4492 3.7852 6.6172 4.4336 10.934 0.56641 9.8984-8.832 20.332-17.066 31.434-24.367 1.668-1.1016 3.3008-2.1016 3.5-4.5156 1.082-13.352-2.25-25.684-8.4336-37.367-0.51562-0.96484-1.0156-2.4844-2.332-1.8828-0.64844 0.28516-0.96484 1.8828-0.98437 2.918-0.11719 4.8984-0.035157 9.8164-0.11719 14.715-0.082031 4.582-1.0664 8.7148-6.2656 10.117-5.0156 1.332-9.1328-0.21484-12.215-4.3164-11.918-15.801-27.219-28.887-37.684-48.52zm-52.984 621.07c0.28516 6.2852-3.1836 13.301-8.168 15.102-5.9648 2.1328-11.918 2.1992-16.785-2.9648-1.1836-1.25-2.4492-2.4648-3.832-3.5-6.1328-4.5664-8.8828-3.6836-10.352 3.6836-0.85156 4.2148-0.64844 8.6484-1.6172 12.816-1.082 4.668 0.68359 5.3984 4.832 5.168 8.5664-0.46484 16.051 1.6992 20.352 10.066 0.80078 1.5664 1.832 3.4844 3.8008 2.832 6.9648-2.3008 13.984 1.332 21.285-1.2148 10.066-3.5156 15.668 1.3516 16.566 12.25 0.16797 1.9844-0.035156 4.418 1.0156 5.832 7.0664 9.5664 4.3984 19.801 2.1992 29.883-1.9336 8.8008 0.88281 13.168 10.234 14.418 7.3008 0.98438 10.133-1.4844 8.6328-8.5352-1.2344-5.75-1.1172-11.449-1.2852-17.199-0.082031-2.8516 0.30078-5.8672-2.4492-7.8984-3.9336-2.9336-4.8516-7.2344-4.3516-11.617 0.76562-6.7148-2.5-9.9648-8.332-12.148-3.6016-1.3516-8.75-1.6172-9.5352-6.4336-0.96484-5.9844-4.9648-8.332-9.5508-11.082-9.5508-5.7148-10.465-24.133-0.96484-26.715 11.266-3.0664 5.75-5.75 1.4844-9.75-1.0156-0.94922-1.5-2.4492-2.3828-3.582-4.1484-5.3828-7.6484-4.75-10.867 1.3672-1.7109 3.3242 0.054688 6.1562 0.070312 9.2227zm237.02-361.5c-4.7656 0.91797-11.852 2.1328-18.867 3.6484-7.6992 1.6484-9.918 5.6484-5.918 12.285 4.8516 8.0352 8.25 17.148 15.715 23.398 3.3828 2.832 4.1484 6.5 2.7852 10.117-4.0508 10.668-6.582 22.199-15.285 30.465-2.7852 2.6484-5.4844 5.2148-1.918 8.4648 3.8672 3.5156 6.3164 0.61719 8.8828-2.8008 5.75-7.668 9.9492-16.066 13.484-24.898 2.1992-5.5 5.4336-5.9492 8.5664-1.1172 3.5664 5.5156 9.2656 9.3008 11.668 15.867 1.0664 2.8984 4.5 5.1328 7.2656 7.1016 1.6016 1.1328 3.9336 0.63281 5.4844-1.1016 1.3828-1.5156 1.5664-3.5352 0.035156-4.582-6.5664-4.582-8.7148-12.484-14.199-18.051-8.582-8.6836-14.25-18.867-7.1172-31.617 1.8008-3.2148 2.8672-6.8828 4.0352-10.434 3.5352-10.68-0.89844-16.68-14.617-16.746zm144.14-205.45c-0.39844-0.26562-0.81641-0.55078-1.2148-0.81641-2.7344 3.2148-5.332 6.5508-8.2148 9.6328-2.5352 2.6836-2.5 4.0156 0.91797 6.3164 17.965 12.148 34.668 25.883 48.934 42.316 3 3.4492 5.668 4.1836 9.668 2.1016 11.965-6.1992 15.332-17.918 18.867-29.418 1.1836-3.832-1.918-3.5-4.1836-2.7852-4.918 1.582-9.7344 3.3984-14.582 5.168-11.5 4.2148-18.633-1.332-16.602-13.168 3.1172-18.199 7.1328-36.117 18.449-51.383 0.61719-0.83203 1.3516-2.582 0.98438-3-1.5-1.7344-2.4492 0.26562-3.3672 1.0352-11.965 10.102-22.75 21.035-27.266 36.75-1.1016 3.8164-3.0352 7.5508-5.2852 10.832-3.1172 4.5508-7.8672 5.7852-13.035 3.8516-4.9336-1.8516-5.5508-6.2344-5.2852-10.75 0.12891-2.2344 0.78125-4.4492 1.2148-6.6836zm246.96 694.3c-0.48438-1.0352-0.88281-1.8008-1.1992-2.6172-3.1328-7.8984-9.3516-12.516-17.148-14.5-7.582-1.9336-11.566-5.2148-12.633-13.766-2.6016-20.785-11.949-30.367-31.301-34.551-11.535-2.5-21.051 2.1484-25.766 12.582-3 6.6484-10.199 7.7656-16.484 2.6484-2.3828-1.9492-3.8828-4.6836-7.4336-5.5664-8.3164-2.0508-15.082 1.8828-20.5 12.75-0.88281 1.7656-2.6992 3.7852-1.4492 5.5 1.2656 1.75 3.8164 0.76562 5.7148 0.26562 7.2656-1.9336 14.566-4.3164 22.066-1.7656 4 1.3672 6.5664 0.73438 9.8984-2.0664 11.449-9.668 34.883-9.1484 44.566 0.30078 6.4492 6.2852 9.918 13.918 11.766 22.633 0.56641 2.6836-0.015625 7.4844 4.4492 7.3008 12.434-0.5 23.332 2.6484 32.449 11.383 0.78906 0.75 2.5703 1.668 3.0039-0.53125zm-345.6-49.852c1.6992 0.26563 2.9492 0.85156 3.9492 0.55078 3.6836-1.1016 8.2344-1.3164 8.1328-7-0.10156-5.6328-4.2852-4.332-7.4648-4.4844-3.1992-0.14844-6.4492-0.035157-8.8672-2.5352-2.6016-2.6992-3.6836-2.3828-4.9648 1.3008-1.9844 5.6836-6.0352 10.918-12.066 11.082-9.9648 0.26562-8.5 5.9844-7.5664 12.184 0.46484 3.1172 1.082 6.25 1.0664 9.3828-0.035157 5.5664 0.89844 8.6016 7.918 7.1016 7.8008-1.6484 14.434 1.5352 17.398 9.332 2 5.2852 3.582 9.9844 10.215 11.102 3 0.51562 4.0508 4.0508 4.1836 6.9844 0.26562 6.0156 0.76562 12.035-1.332 17.965-3.918 11.102-7.5156 22.316-11.285 33.484-1.1328 3.3516-2.3984 8.3516 1.082 9.1172 6.332 1.3984 13.418 0.25 19.184-2.832 5.6172-3.0156 0.69922-7.4648-0.23438-11.301-0.26562-1.1016-0.18359-2.3008-0.28516-3.4492-1.1484-14.301-2.0508-28.648-3.6172-42.898-0.60156-5.418 0.78516-12.434-5.0508-15.551-8.3516-4.4844-12.398-12.699-18.316-19.184-3.9336-4.3008-4.6172-10.734-2.1328-16.352 1.957-4.3672 6.5391-4.082 10.055-4zm79.785-467.75c0.10156-14.852-9.6992-26.582-22.266-26.633-11.5-0.035156-19.832 7.8984-20.082 19.117-0.30078 14.383 9.7148 24.949 23.699 25 12.266 0.066406 18.566-5.8672 18.648-17.484zm-431.97 565.97c6.8164-6.2656 12.434-11.949 20.668-12.418 8.1328-0.44922 11.465-4.4492 12.898-12.418 2.1172-11.75 15.602-21.715 27.398-21.965 9.5508-0.19922 19.082-0.14844 27.984 3.8672 3.0664 1.3828 5.0664 0.48438 6.7148-1.7344 2.2344-2.9844-1.418-3.6992-2.582-4.918-2.6328-2.7656-4.3672-6.0156-6.3672-9.168-7.2852-11.566-11.965-12.883-25.117-9.8164-10.449 2.4336-15.898 10.566-22.352 17.566-4.6836 5.082-8.668 11.352-8.6328 18.367 0.050781 8.8828-4.6172 11.852-12.082 13.852-8.8477 2.3984-15.879 7.332-18.531 18.785zm202.12-537.2c10.301-0.16797 23.367-11.5 23.551-20.398 0.16797-8.3008-13.117-20.801-22.215-20.934-9.168-0.11719-21.184 13.465-21.035 23.766 0.13281 8.8164 10.133 17.734 19.699 17.566zm-103.27 363.4c5.2148 5.7344 9.1172 9.418 14.715 8.082 1.9648-0.46484 2.1016-4.8672 0.86719-6.1328-4.0312-4.168-9.1836-0.26562-15.582-1.9492z"/>
  <path d="m775.15 928.05c0.35156 4.1836-1.0664 8.0508-2.1484 11.883-2.3828 8.418-8.7852 11.602-16.617 7.668-7.1836-3.6016-14.398-6.8984-22.035-9.5352-7.0508-2.4336-7.668-9.1328-4.668-14.332 5.5352-9.5664 6.2852-19.051 4.4648-29.668-1.2148-7.1016 4.6172-12.617 8-18.316 1.9336-3.2656 6.9492-2.1172 10.516-1.168 3.5352 0.93359 4.7656 4.25 4.7656 7.4844-0.015625 6.4844-0.18359 12.449 8.0156 14.75 2.918 0.81641 3.9648 4.7148 5.1484 7.668 3.0781 7.582 3.2422 15.684 4.5586 23.566z"/>
 </g>
</svg>
